0
SECTION
2
HEADER
9
$ACADVER
1
AC1027
9
$INSUNITS
70
4
0
ENDSEC
0
SECTION
2
ENTITIES
0
LWPOLYLINE
8
ROOMS
90
4
70
1
10
0.0
20
6000.0
10
8000.0
20
6000.0
10
8000.0
20
0.0
10
0.0
20
0.0
0
TEXT
8
LABELS
10
4000.0
20
3000.0
40
250.0
1
Meeting Room
0
LWPOLYLINE
8
ROOMS
90
4
70
1
10
9000.0
20
6000.0
10
18000.0
20
6000.0
10
18000.0
20
0.0
10
9000.0
20
0.0
0
MTEXT
8
LABELS
10
13500.0
20
3000.0
1
Open Space
0
LWPOLYLINE
8
ROOMS
90
4
70
1
10
0.0
20
13000.0
10
8000.0
20
13000.0
10
8000.0
20
7000.0
10
0.0
20
7000.0
0
TEXT
8
LABELS
10
4000.0
20
10000.0
1
Store
0
LWPOLYLINE
8
WALLS
90
2
70
0
10
0.0
20
6500.0
10
18000.0
20
6500.0
0
LINE
8
WALLS
10
0.0
20
0.0
11
18000.0
21
0.0
0
INSERT
8
FURNITURE
2
DESK
10
2000.0
20
2000.0
0
ENDSEC
0
EOF
